<?xml version="1.0" standalone="no"?>
<!DOCTYPE svg PUBLIC "-//W3C//DTD SVG 20010904//EN"
 "http://www.w3.org/TR/2001/REC-SVG-20010904/DTD/svg10.dtd">
<svg version="1.0" xmlns="http://www.w3.org/2000/svg"
 width="1024.000000pt" height="1024.000000pt" viewBox="0 0 1024.000000 1024.000000"
 preserveAspectRatio="xMidYMid meet">
<metadata>
Created by potrace 1.14, written by Peter Selinger 2001-2017
</metadata>
<g transform="translate(0.000000,1024.000000) scale(0.100000,-0.100000)"
fill="#000000" stroke="none">
<path d="M3900 9481 c-101 -18 -466 -148 -676 -241 -812 -359 -1521 -988
-1981 -1755 -356 -596 -563 -1256 -613 -1960 -13 -180 -13 -640 0 -820 67
-939 411 -1798 1009 -2515 835 -1003 2067 -1579 3379 -1580 l164 0 29 29 c27
27 29 35 29 101 0 65 -3 74 -27 99 -28 27 -31 28 -218 39 -221 14 -367 32
-555 68 -656 124 -1255 384 -1790 777 -329 242 -675 588 -917 917 -499 680
-785 1463 -843 2316 -30 437 73 1049 265 1565 221 594 551 1107 1004 1560 326
325 644 560 1051 777 212 112 584 265 747 307 42 11 67 24 91 50 30 33 32 39
32 112 l0 76 -45 44 c-47 45 -59 48 -135 34z"/>
<path d="M4714 9110 c-813 -68 -1566 -372 -2183 -883 -144 -119 -382 -356
-505 -503 -331 -395 -576 -847 -737 -1354 -45 -142 -58 -234 -39 -270 6 -11
26 -30 43 -40 45 -28 159 -28 205 0 34 21 37 26 72 135 282 872 883 1628 1673
2107 567 343 1275 551 1882 551 504 0 1097 -147 1601 -397 764 -379 1376 -995
1749 -1761 85 -174 185 -421 206 -510 15 -68 21 -76 59 -102 27 -19 47 -23
107 -23 77 0 102 8 141 43 17 16 22 31 22 74 0 29 -4 61 -10 71 -5 9 -26 71
-46 137 -301 995 -1040 1861 -1988 2331 -390 193 -788 313 -1246 375 -128 17
-219 21 -530 24 -206 2 -420 0 -476 -5z"/>
<path d="M8384 8791 c-53 -32 -70 -64 -77 -139 l-6 -69 157 -159 c532 -539
920 -1169 1157 -1879 182 -543 276 -1156 246 -1606 -109 -1633 -985 -3065
-2381 -3894 -547 -325 -1213 -553 -1853 -635 -373 -47 -630 -47 -1004 0 -1045
134 -2051 622 -2787 1353 -76 75 -146 142 -156 147 -34 18 -142 12 -178 -10
-54 -33 -72 -74 -72 -161 l0 -76 144 -141 c715 -696 1560 -1140 2524 -1327
314 -60 613 -85 1027 -85 156 0 352 5 437 11 948 65 1833 391 2593 954 366
271 739 644 1010 1010 442 597 738 1271 880 2003 60 314 85 613 85 1027 0 156
-5 352 -11 437 -73 1060 -479 2056 -1162 2855 -127 148 -344 371 -378 389 -42
21 -157 18 -195 -5z"/>
<path d="M8856 5821 c-4 -5 -27 -113 -52 -238 -25 -125 -47 -237 -50 -248 -2
-11 -8 -42 -14 -70 -5 -27 -12 -61 -15 -75 -3 -14 -7 -36 -10 -50 -4 -25 -22
-116 -30 -155 -62 -301 -64 -316 -42 -332 39 -31 194 -60 335 -62 336 -5 545
230 537 603 -3 131 -8 155 -41 213 -46 78 -115 111 -229 111 -74 0 -154 -18
-184 -42 -12 -9 -13 -6 -8 15 24 94 58 285 55 307 l-3 27 -122 3 c-71 1 -124
-1 -127 -7z m356 -545 c44 -33 46 -141 7 -261 -36 -107 -90 -169 -172 -195
-31 -10 -112 -8 -123 3 -10 9 43 212 68 264 35 72 114 163 160 186 39 20 39
20 60 3z"/>
<path d="M1640 5513 c-8 -3 -34 -19 -57 -34 l-42 -29 -3 22 c-3 22 -8 23 -97
26 -52 1 -98 -1 -102 -5 -8 -8 -11 -27 -25 -158 -12 -119 -27 -216 -44 -300
-11 -49 -22 -106 -25 -125 -3 -19 -8 -42 -10 -50 -2 -8 -7 -31 -10 -50 -3 -19
-10 -51 -15 -70 -17 -66 -18 -119 -3 -125 24 -9 211 -6 217 4 3 5 15 58 27
117 11 60 23 118 25 129 5 27 23 114 30 145 3 14 7 36 10 50 11 56 73 167 123
220 12 12 13 11 8 -5 -4 -11 -9 -33 -11 -50 -5 -26 -13 -69 -32 -164 -3 -13
-22 -106 -42 -205 -21 -100 -38 -194 -37 -211 l0 -30 106 -3 c77 -2 109 1 116
10 8 11 30 102 49 208 2 14 7 36 10 50 3 14 8 36 10 50 3 14 10 50 16 80 6 30
13 61 14 69 6 30 65 138 94 171 l30 35 -4 -35 c-3 -19 -14 -79 -26 -134 -11
-54 -22 -108 -24 -120 -2 -11 -16 -79 -32 -151 -15 -71 -27 -152 -28 -180 l-1
-50 108 -3 c103 -3 107 -2 116 20 9 22 29 115 65 303 9 44 27 134 40 200 54
267 19 371 -130 383 -73 5 -112 -7 -163 -51 l-34 -29 -19 30 c-10 17 -33 35
-50 41 -32 11 -122 14 -148 4z"/>
<path d="M2634 5501 c-195 -55 -335 -211 -374 -421 -10 -51 -14 -195 -7 -230
21 -101 76 -175 163 -219 60 -29 86 -34 214 -37 115 -2 204 11 276 41 l32 13
-1 99 c0 54 -2 104 -5 111 -5 15 -37 11 -139 -17 -212 -58 -314 45 -243 245
40 115 102 175 202 196 50 10 65 9 135 -10 111 -31 109 -31 131 -25 16 4 23
21 36 93 22 119 21 138 -6 150 -73 31 -316 38 -414 11z"/>
<path d="M3540 5513 c-14 -3 -58 -20 -98 -39 -128 -61 -236 -197 -278 -350
-22 -82 -26 -253 -7 -317 45 -152 159 -217 380 -215 119 1 285 26 304 45 14
14 15 191 1 205 -7 7 -37 5 -99 -7 -134 -27 -221 -28 -270 -4 -42 21 -73 67
-73 108 0 19 6 21 78 22 233 1 354 33 437 114 43 42 63 87 70 160 12 118 -37
204 -144 253 -48 22 -71 26 -166 28 -60 0 -121 -1 -135 -3z m131 -215 c90 -26
66 -100 -41 -124 -62 -13 -170 -16 -170 -4 0 42 106 134 159 138 9 0 32 -4 52
-10z"/>
<path d="M4425 5506 c-146 -38 -246 -121 -315 -261 -48 -99 -68 -190 -68 -322
0 -120 11 -173 50 -231 46 -67 94 -92 191 -99 100 -7 171 11 245 61 l51 34 3
-37 3 -36 99 -3 c57 -2 103 2 110 8 7 5 13 29 14 52 1 24 4 52 6 63 2 12 7 52
11 90 9 95 11 112 40 255 8 41 16 86 19 100 2 14 7 36 10 50 3 14 8 36 10 50
2 14 12 60 21 103 9 43 15 91 13 105 -3 25 -6 27 -43 25 -86 -5 -175 -5 -295
0 -86 4 -141 1 -175 -7z m212 -219 c9 -9 -46 -216 -70 -264 -58 -119 -170
-218 -216 -193 -63 33 -43 245 33 361 50 75 125 112 206 103 25 -3 46 -7 47
-7z"/>
<path d="M5355 5509 c-181 -33 -285 -143 -280 -295 5 -129 79 -203 263 -264
90 -29 128 -60 112 -91 -34 -63 -178 -73 -350 -22 -58 17 -119 24 -121 14 -1
-3 -3 -55 -4 -114 -2 -125 -6 -119 102 -134 73 -9 336 -10 383 -1 180 36 279
145 275 304 -3 128 -72 200 -247 258 -100 33 -143 62 -132 89 18 48 142 68
265 42 165 -35 156 -40 155 86 -1 78 -5 102 -16 109 -45 24 -308 37 -405 19z"/>
<path d="M8132 5509 c-60 -11 -155 -64 -211 -118 -123 -117 -184 -284 -176
-481 3 -96 15 -137 57 -195 65 -93 178 -130 363 -122 66 3 131 8 145 11 14 3
42 7 63 10 46 7 77 22 78 39 4 65 -3 183 -11 191 -7 7 -42 3 -111 -11 -110
-23 -217 -24 -262 -2 -31 14 -59 58 -65 102 l-3 27 88 1 c231 2 350 34 433
119 46 47 63 94 64 180 2 121 -56 202 -171 241 -52 17 -207 22 -281 8z m146
-210 c54 -18 62 -68 17 -101 -35 -27 -235 -50 -235 -28 0 24 57 90 97 112 50
28 76 31 121 17z"/>
<path d="M5933 5485 c-3 -9 0 -44 7 -78 7 -34 14 -71 16 -82 2 -11 33 -166 68
-345 l65 -325 -27 -34 c-38 -51 -81 -88 -129 -112 -36 -18 -53 -20 -116 -14
-58 5 -75 4 -79 -7 -7 -22 -2 -207 6 -215 4 -5 51 -9 105 -10 164 -4 244 32
391 177 173 170 454 598 502 763 6 23 13 47 14 52 20 66 33 135 38 198 4 47
-2 49 -154 45 l-114 -3 -7 -40 c-4 -22 -9 -59 -13 -83 -14 -103 -79 -261 -166
-402 -29 -47 -40 -59 -40 -42 0 12 0 23 -1 25 0 1 -5 22 -10 47 -6 25 -19 95
-29 155 -31 181 -59 325 -65 336 -4 5 -62 9 -131 9 -103 0 -126 -3 -131 -15z"/>
<path d="M6845 5490 c-7 -11 -11 -65 -20 -230 -3 -63 -8 -140 -10 -170 -8
-111 -18 -307 -19 -390 l-1 -85 139 0 138 0 35 64 c19 36 50 94 69 130 18 36
34 62 34 56 0 -5 5 -39 10 -75 5 -36 12 -87 16 -115 3 -27 8 -53 11 -57 2 -5
50 -8 106 -8 l102 0 38 43 c92 101 197 326 232 497 2 8 8 35 14 60 14 65 25
156 25 225 l1 60 -119 0 c-98 0 -119 -3 -121 -15 -1 -8 -5 -52 -9 -97 -3 -45
-13 -113 -21 -151 -7 -37 -16 -79 -19 -92 -7 -38 -35 -124 -44 -138 -6 -9 -12
7 -16 45 -4 32 -8 65 -10 73 -8 48 -18 108 -20 125 -3 18 -12 20 -103 23 -72
2 -103 -1 -110 -10 -6 -7 -32 -55 -58 -105 -26 -51 -49 -93 -52 -93 -3 0 -3
37 1 83 7 97 17 245 20 302 2 22 -2 43 -8 47 -16 11 -224 10 -231 -2z"/>
<path d="M1314 4191 c-11 -5 -33 -23 -47 -41 -42 -50 -37 -106 26 -301 212
-649 518 -1151 983 -1611 311 -307 628 -536 1008 -724 391 -194 785 -312 1251
-375 155 -21 207 -23 590 -23 383 0 435 2 590 23 360 48 635 119 951 242 887
347 1633 1033 2060 1893 121 244 265 639 281 768 13 104 -25 138 -152 138
-113 0 -136 -15 -165 -112 -72 -239 -235 -599 -378 -835 -527 -867 -1377
-1498 -2351 -1743 -528 -133 -972 -146 -1472 -45 -1159 236 -2127 961 -2670
1999 -114 219 -259 580 -259 646 0 21 -11 42 -34 68 -33 36 -36 37 -113 39
-43 2 -87 -1 -99 -6z"/>
<path d="M8110 3888 c-18 -13 -36 -30 -40 -38 -379 -851 -1106 -1508 -1998
-1806 -363 -122 -797 -187 -1083 -164 -513 41 -1015 198 -1445 451 -117 69
-286 182 -303 203 -26 31 -69 46 -133 46 -113 0 -168 -56 -168 -170 0 -92 17
-114 157 -208 516 -345 1045 -532 1648 -582 157 -13 600 -13 762 0 1172 95
2212 789 2747 1830 106 207 149 316 141 358 -13 74 -62 102 -173 102 -66 0
-85 -4 -112 -22z"/>
</g>
</svg>
